<?xml version="1.0" encoding="utf-8"?>
<!-- Generator: Adobe Illustrator 16.0.2, SVG Export Plug-In . SVG Version: 6.00 Build 0)  -->
<!DOCTYPE svg PUBLIC "-//W3C//DTD SVG 1.1//EN" "http://www.w3.org/Graphics/SVG/1.1/DTD/svg11.dtd">
<svg version="1.1" id="Ebene_1" xmlns="http://www.w3.org/2000/svg" xmlns:xlink="http://www.w3.org/1999/xlink" x="0px" y="0px"
	 width="406.457px" height="492.703px" viewBox="-176.169 -213.745 406.457 492.703"
	 enable-background="new -176.169 -213.745 406.457 492.703" xml:space="preserve">
<g>
	<path fill="#16A74E" d="M26.909-212.241h201.832V84.412c0,106.609-90.313,193.016-201.711,193.016
		c-111.402,0-201.688-86.406-201.688-193.016V-212.24L26.909-212.241L26.909-212.241z"/>
	<g>
		<g>
			<g>
				<g>
					<defs>
						<rect id="SVGID_1_" x="-176.169" y="-213.745" width="406.457" height="492.703"/>
					</defs>
					<clipPath id="SVGID_2_">
						<use xlink:href="#SVGID_1_"  overflow="visible"/>
					</clipPath>
					<path clip-path="url(#SVGID_2_)" fill="none" stroke="#010202" stroke-width="3.048" d="M26.909-212.241h201.832V84.412
						c0,106.609-90.313,193.016-201.711,193.016c-111.402,0-201.688-86.406-201.688-193.016V-212.24L26.909-212.241L26.909-212.241z
						"/>
				</g>
			</g>
		</g>
	</g>
	<path fill="#FFFFFF" d="M39.85,248.162c0,5.844-4.563,10.547-10.195,10.547c-5.632,0-10.195-4.719-10.195-10.547v-430.883
		c0-5.824,4.563-10.543,10.195-10.543c5.632,0,10.195,4.727,10.195,10.543V248.162z"/>
	<path fill="none" stroke="#020203" stroke-width="3.048" stroke-miterlimit="10" d="M39.85,248.162
		c0,5.844-4.563,10.547-10.195,10.547c-5.632,0-10.195-4.719-10.195-10.547v-430.883c0-5.824,4.563-10.543,10.195-10.543
		c5.632,0,10.195,4.727,10.195,10.543V248.162z"/>
	<path fill="#FFFFFF" d="M-26.666-194.417c8.863,17.07,33.992,29.336,41.301,30.582c7.289,1.227,29.949,6.418,29.949,6.418
		l11.555,9.695L44.334-136.76c0,0-25.832,2.104-29.547,2.104c-3.582,1.086-23.605,5.59-40.977,27.172
		c-2.504-3.582-13.512-14.148-13.512-45.172C-39.701-177.663-28.373-192.241-26.666-194.417"/>
	<line fill="none" x1="44.67" y1="-157.346" x2="44.389" y2="-136.799"/>
	<line fill="none" x1="14.635" y1="-163.69" x2="14.635" y2="-134.682"/>
	<path fill="none" stroke="#010202" stroke-width="3.048" stroke-miterlimit="10" d="M-26.666-194.417
		c8.863,17.07,33.992,29.336,41.301,30.582c7.289,1.227,29.949,6.418,29.949,6.418l11.555,9.695L44.334-136.76
		c0,0-25.832,2.104-29.547,2.104c-3.582,1.086-23.605,5.59-40.977,27.172c-2.504-3.582-13.512-14.148-13.512-45.172
		C-39.701-177.663-28.373-192.241-26.666-194.417z"/>
	<path fill="none" stroke="#020203" stroke-width="3.048" stroke-miterlimit="10" d="M14.635-163.69v29.008 M44.67-157.346
		l-0.281,20.547"/>
	<path fill="#FFFFFF" d="M42.694,203.63c0,5.719-5.844,10.344-13.09,10.344c-7.223,0-13.078-4.625-13.078-10.344V-91.975
		c0-5.707,5.848-10.336,13.078-10.336s13.09,4.629,13.09,10.336V203.63z"/>
	<path fill="none" stroke="#020203" stroke-width="3.048" stroke-miterlimit="10" d="M42.694,203.63
		c0,5.719-5.844,10.344-13.09,10.344c-7.223,0-13.078-4.625-13.078-10.344V-91.975c0-5.707,5.848-10.336,13.078-10.336
		s13.09,4.629,13.09,10.336V203.63z"/>
	<path fill="#FFFFFF" d="M-8.13,203.63c0,5.719-4.543,10.344-10.152,10.344c-5.609,0-10.152-4.625-10.152-10.344V-91.975
		c0-5.707,4.543-10.336,10.152-10.336c5.609,0,10.152,4.629,10.152,10.336V203.63z"/>
	<path fill="none" stroke="#020203" stroke-width="3.048" stroke-miterlimit="10" d="M-8.13,203.63
		c0,5.719-4.543,10.344-10.152,10.344c-5.609,0-10.152-4.625-10.152-10.344V-91.975c0-5.707,4.543-10.336,10.152-10.336
		c5.609,0,10.152,4.629,10.152,10.336V203.63z"/>
	<path fill="#FFFFFF" d="M87.584,203.63c0,5.719-4.539,10.344-10.156,10.344c-5.594,0-10.141-4.625-10.141-10.344V-91.975
		c0-5.707,4.547-10.336,10.141-10.336c5.609,0,10.156,4.629,10.156,10.336V203.63z"/>
	<path fill="none" stroke="#020203" stroke-width="3.048" stroke-miterlimit="10" d="M87.584,203.63
		c0,5.719-4.539,10.344-10.156,10.344c-5.594,0-10.141-4.625-10.141-10.344V-91.975c0-5.707,4.547-10.336,10.141-10.336
		c5.609,0,10.156,4.629,10.156,10.336V203.63z"/>
	<path fill="#FFFFFF" d="M67.303,203.63c0,5.719-5.563,10.344-12.438,10.344c-6.867,0-12.453-4.625-12.453-10.344V-91.975
		c0-5.707,5.586-10.336,12.453-10.336c6.875,0,12.438,4.629,12.438,10.336V203.63z"/>
	<path fill="none" stroke="#020203" stroke-width="3.048" stroke-miterlimit="10" d="M67.303,203.63
		c0,5.719-5.563,10.344-12.438,10.344c-6.867,0-12.453-4.625-12.453-10.344V-91.975c0-5.707,5.586-10.336,12.453-10.336
		c6.875,0,12.438,4.629,12.438,10.336V203.63z"/>
	<path fill="#FFFFFF" d="M16.795,203.63c0,5.719-5.621,10.344-12.566,10.344c-6.93,0-12.559-4.625-12.559-10.344V-91.975
		c0-5.707,5.629-10.336,12.559-10.336c6.945,0,12.566,4.629,12.566,10.336V203.63z"/>
	<path fill="none" stroke="#020203" stroke-width="3.048" stroke-miterlimit="10" d="M16.795,203.63
		c0,5.719-5.621,10.344-12.566,10.344c-6.93,0-12.559-4.625-12.559-10.344V-91.975c0-5.707,5.629-10.336,12.559-10.336
		c6.945,0,12.566,4.629,12.566,10.336V203.63z"/>
	<rect x="-34.373" y="-77.471" fill="#16A74E" width="128.043" height="22.789"/>
	
		<rect x="-34.365" y="-77.471" fill="none" stroke="#020203" stroke-width="3.048" stroke-miterlimit="10" width="128.035" height="22.789"/>
	<rect x="-34.373" y="164.771" fill="#16A74E" width="128.043" height="22.82"/>
	
		<rect x="-34.365" y="164.771" fill="none" stroke="#020203" stroke-width="3.048" stroke-miterlimit="10" width="128.035" height="22.82"/>
	<polygon fill="#16A74E" points="93.67,-38.713 93.67,4.025 -34.337,155.13 -34.337,112.412 	"/>
	<polygon fill="none" stroke="#020203" stroke-width="3.048" stroke-linecap="square" stroke-miterlimit="10" points="
		93.67,-38.713 93.67,4.025 -34.337,155.13 -34.337,112.412 	"/>
	<polygon fill="#16A74E" points="-34.337,-38.713 -34.337,4.025 93.67,155.13 93.67,112.412 	"/>
	<polygon fill="none" stroke="#020203" stroke-width="3.048" stroke-linecap="square" stroke-miterlimit="10" points="
		-34.337,-38.713 -34.337,4.025 93.67,155.13 93.67,112.412 	"/>
</g>
</svg>
